<?xml version="1.0" encoding="UTF-8"?>
<svg width="188px" height="137px" viewBox="0 0 188 137" version="1.1" xmlns="http://www.w3.org/2000/svg" xmlns:xlink="http://www.w3.org/1999/xlink">
    <title>kd</title>
    <g id="Page-1" stroke="none" stroke-width="1" fill="none" fill-rule="evenodd">
        <g id="t" transform="translate(-80.000000, -147.000000)" fill="#000000" fill-rule="nonzero">
            <path d="M104.6,282 L104.6,257 L116.8,241.2 L146.6,282 L173.6,282 L130.6,222.8 L161.4,180.6 L134.4,180.6 L104.6,221 L104.6,147 L80.2,147 L80.2,282 L104.6,282 Z M221,284 C229.666667,283.866667 237.466667,282 244.4,278.4 C247.333333,276.8 250.2,274.766667 253,272.3 C255.8,269.833333 258.3,266.7 260.5,262.9 C262.7,259.1 264.466667,254.6 265.8,249.4 C267.133333,244.2 267.8,238.133333 267.8,231.2 L267.8,231.2 L267.8,147 L244,147 L244,192.379 L243.926531,192.273469 C242.766667,190.657143 241.514201,189.241454 240.169133,188.026403 L239.8,187.7 C236.333333,184.7 232.933333,182.466667 229.6,181 C225.733333,179.4 221.733333,178.4 217.6,178 C209.333333,178.266667 202,180.266667 195.6,184 C192.8,185.6 190.1,187.666667 187.5,190.2 C184.9,192.733333 182.566667,195.9 180.5,199.7 C178.433333,203.5 176.766667,208 175.5,213.2 C174.233333,218.4 173.6,224.466667 173.6,231.4 C173.6,238.333333 174.266667,244.4 175.6,249.6 C176.933333,254.8 178.7,259.266667 180.9,263 C183.1,266.733333 185.633333,269.833333 188.5,272.3 C191.366667,274.766667 194.266667,276.8 197.2,278.4 C204.133333,282 212.066667,283.866667 221,284 Z M221,261.2 C216.066667,261.2 212.1,260.2 209.1,258.2 C206.1,256.2 203.8,253.7 202.2,250.7 C200.6,247.7 199.533333,244.466667 199,241 C198.466667,237.533333 198.2,234.333333 198.2,231.4 C198.2,228.466667 198.466667,225.266667 199,221.8 C199.533333,218.333333 200.6,215.1 202.2,212.1 C203.8,209.1 206.1,206.6 209.1,204.6 C212.1,202.6 216.066667,201.6 221,201.6 C225.933333,201.6 229.9,202.6 232.9,204.6 C235.9,206.6 238.233333,209.1 239.9,212.1 C241.566667,215.1 242.666667,218.333333 243.2,221.8 C243.733333,225.266667 244,228.466667 244,231.4 C244,234.333333 243.733333,237.533333 243.2,241 C242.666667,244.466667 241.566667,247.7 239.9,250.7 C238.233333,253.7 235.9,256.2 232.9,258.2 C229.9,260.2 225.933333,261.2 221,261.2 Z" id="kd"></path>
        </g>
    </g>
</svg>